<svg height="512" viewBox="0 0 512 512" width="512" xmlns="http://www.w3.org/2000/svg"><path d="M256 512C114.841 512 0 397.159 0 256S114.841 0 256 0s256 114.841 256 256-114.841 256-256 256z" fill="#fdbf00"/><path d="M256 0v512c141.159 0 256-114.841 256-256S397.159 0 256 0z" fill="#ff9100"/><path d="M317 436.99l-129.96-.171a15 15 0 01-10.601-4.407l-97.06-97.315A15.002 15.002 0 0175 324.485l.181-137.444a15 15 0 014.407-10.601l97.316-97.06A15 15 0 01187.496 75h.021L317 75.17l30 15.887 30 30.079 17.191 38.544L407 151.216l25.62 25.688a14.997 14.997 0 014.38 10.612l-.181 137.444a15 15 0 01-4.407 10.601L407 360.906l-15-6.842-15 36.763-30 29.921z" fill="#ffde46"/><path d="M432.62 176.903L407 151.216l-12.809 8.465L377 121.137l-30-30.079-30-15.888-61-.08v361.82l61 .08 30-16.242 30-29.921 15-36.763 15 6.842 25.412-25.345a15 15 0 004.407-10.601L437 187.516a15 15 0 00-4.38-10.613z" fill="#ffcd00"/><path d="M377 390.827l30-29.921v-209.69l-30-30.079zm-30 29.921V91.057l-11.439-11.47a15 15 0 00-10.601-4.407l-7.96-.01v361.82l7.484.01h.021c3.971 0 7.78-1.575 10.592-4.38z" fill="#fdbf00"/></svg>