<svg height="512" viewBox="0 0 512 512" width="512" xmlns="http://www.w3.org/2000/svg"><path d="M228.667 146.667h54.666V92H338V37.333h109.333V92H502v164h-54.667v54.667h-54.666v54.666H338V420h-54.667v54.667h-54.666V420H174v-54.667h-54.667v-54.666H64.667V256H10V92h54.667V37.333H174V92h54.667z" fill="#ff7b79"/><path d="M283.333 484.667h-54.666c-5.523 0-10-4.477-10-10V430H174c-5.523 0-10-4.477-10-10v-44.667h-44.666c-5.523 0-10-4.477-10-10v-44.667H64.666c-5.523 0-10-4.477-10-10V266H10c-5.523 0-10-4.477-10-10V92c0-5.523 4.477-10 10-10h44.667V37.333c0-5.523 4.477-10 10-10H174c5.523 0 10 4.477 10 10V82h44.667c5.523 0 10 4.477 10 10v44.667h34.668V92c0-5.523 4.477-10 10-10H328V37.333c0-5.523 4.478-10 10-10h109.334c5.522 0 10 4.477 10 10V82H502c5.522 0 10 4.477 10 10v37c0 5.523-4.478 10-10 10s-10-4.477-10-10v-27h-44.666c-5.523 0-10-4.477-10-10V47.333H348V92c0 5.523-4.478 10-10 10h-44.666v44.667c0 5.523-4.478 10-10 10h-54.668c-5.523 0-10-4.477-10-10V102H174c-5.523 0-10-4.477-10-10V47.333H74.666V92c0 5.523-4.477 10-10 10H20v144h44.666c5.523 0 10 4.477 10 10v44.667h44.667c5.523 0 10 4.477 10 10v44.667H174c5.523 0 10 4.477 10 10V410h44.667c5.523 0 10 4.477 10 10l.001 44.667h34.666V420c0-5.523 4.477-10 10-10H328v-44.667c0-5.523 4.478-10 10-10h44.667v-44.667c0-5.523 4.478-10 10-10h44.667V256c0-5.523 4.477-10 10-10H492v-27c0-5.523 4.478-10 10-10s10 4.477 10 10v37c0 5.523-4.478 10-10 10h-44.666v44.667c0 5.523-4.478 10-10 10h-44.667v44.667c0 5.523-4.477 10-10 10H348V420c0 5.523-4.478 10-10 10h-44.666l-.001 44.667c0 5.523-4.478 10-10 10z"/><path d="M502 184c-2.63 0-5.21-1.07-7.07-2.93S492 176.63 492 174s1.069-5.21 2.93-7.07c1.86-1.86 4.44-2.93 7.07-2.93s5.21 1.07 7.069 2.93c1.86 1.86 2.931 4.44 2.931 7.07s-1.07 5.21-2.931 7.07A10.072 10.072 0 01502 184z"/></svg>